<?xml version="1.0" encoding="utf-8"?>
<!-- Generator: Adobe Illustrator 23.1.0, SVG Export Plug-In . SVG Version: 6.00 Build 0)  -->
<svg version="1.1" id="Layer_1" xmlns="http://www.w3.org/2000/svg" xmlns:xlink="http://www.w3.org/1999/xlink" x="0px" y="0px"
	 viewBox="0 0 96 96" style="enable-background:new 0 0 96 96;" xml:space="preserve">
<style type="text/css">
	.st0{fill:#F3B354;}
	.st1{opacity:0.12;fill:#FFFFFF;enable-background:new    ;}
	.st2{fill:#FFFFFF;}
</style>
<circle class="st0" cx="47.6" cy="47.4" r="46.5"/>
<path class="st1" d="M30.5,4.2C13.3,11,1.1,27.8,1.1,47.4c0,18.5,10.7,34.4,26.3,41.9c19.1-2,34-20.4,34-42.8
	C61.4,25.3,48,7.7,30.5,4.2z"/>
<path class="st2" d="M22.6,55c4,0.1,7.6-1.4,10.6-4.5c2.6-2.8,4.4-6.1,4.5-9.8c0.7-5.8,3-9.3,6.8-10.6l0.8,3.8
	c-2.1,0.8-3.6,3.3-4.5,6.8c-0.5,5.6-2.3,10.2-6.1,13.6c-3.9,3.5-8,4.9-12.1,4.5V55z"/>
<path class="st2" d="M22.6,48.2c0.9-0.2,2.8-0.7,4.6-2.3c2.2-2,2.7-4.4,3-5.2c0.1-1.7,0.3-4.1,1.3-6.8c1.4-3.7,3.4-6.2,4.8-7.6
	c1.1-0.9,3-2.3,5.6-3.1c2-0.6,3.8-0.8,5-0.7l-1.5,3.8c-1.7,0.5-4.3,1.4-6.8,3.8c-5.2,4.8-5.3,11.5-5.3,12.9
	c-1.4,5.6-4.9,8.6-10.6,9.1V48.2z"/>
<path class="st2" d="M22.6,43.7c1.1,0.2,3.8-3,3.8-3c1.7-9.5,5.5-16.3,11.3-20.4c3.6-1.7,7.5-2,11.3-1.5l3.8-3
	C46.4,14,40.3,14.5,34.7,18C25.6,23.7,21.9,32.5,22.6,43.7z"/>
<path class="st2" d="M24.1,64.1c2.6-0.6,5.7-1.7,8.7-3.6c11.4-7.3,13.6-20.7,14-23.6c0.8,0.5,1.5,1,2.3,1.5c0,1.9-0.2,4.2-0.8,6.8
	c-0.8,3.5-2,6.3-3,8.3c-4.7,8.3-11.7,12.8-20.4,14.4L24.1,64.1z"/>
<path class="st2" d="M27.2,70.9c3-0.5,7-1.7,11-4.4c11.5-7.6,13.6-20.9,14-23.6c1.3,0.5,2.5,1,3.8,1.5c-0.2,1.8-0.7,4.2-1.5,6.8
	c0,0-1.4,4.5-3.8,8.3C45,68.7,30.8,74.5,30.2,74.7C29.2,73.4,28.1,72.2,27.2,70.9z"/>
<path class="st2" d="M34,77.7l16.6-12.1L60.4,77l-3.8,2.3c-4.1-2.9-6.7-5.7-6.8-8.3c-1.8,3.4-5.7,6.4-11.3,9.1L34,77.7z"/>
<path class="st2" d="M44.6,80.8l4.5-3.8l3,3C49.8,80.6,47.3,80.8,44.6,80.8z"/>
<path class="st2" d="M52.9,62.6l3-5.3c0.7,5.7,3.9,10.3,9.8,13.6l-2.3,3C58.7,71.8,55.2,67.9,52.9,62.6z"/>
<path class="st2" d="M68,67.2l1.5-3.8c-3.6-0.7-5.7-3.1-6.1-7.6V45.2h-3.8v10.6C59.7,61.6,62.2,65.5,68,67.2z"/>
<path class="st2" d="M66.5,43.7v12.1c0.5,2.8,1.7,4,3.8,3.8V40.7L66.5,43.7z"/>
<path class="st2" d="M60.4,16.1c-7.3,0-13.2,5.9-13.2,13.1s5.9,13.1,13.2,13.1s13.2-5.9,13.2-13.1S67.7,16.1,60.4,16.1z M66.1,22.9
	h-4c0.3,0.5,0.6,1.1,0.8,1.6h3.2v2.3h-2.8c0,1-0.3,2.1-0.9,3.2c-0.7,0.8-1.4,1.4-2.3,1.6l6,6.3h-2.3L55.6,30
	c1.9,0.1,3.5-0.3,4.5-1.6c0.3-0.5,0.4-1,0.5-1.6h-5.8v-2.3h5.4c-0.2-0.5-0.5-1-1-1.6h-4.4v-2.3h11.3V22.9z"/>
</svg>
