<?xml version="1.0" encoding="utf-8"?>
<!-- Generator: Adobe Illustrator 23.1.0, SVG Export Plug-In . SVG Version: 6.00 Build 0)  -->
<svg version="1.1" id="Layer_1" xmlns="http://www.w3.org/2000/svg" xmlns:xlink="http://www.w3.org/1999/xlink" x="0px" y="0px"
	 viewBox="0 0 96 96" style="enable-background:new 0 0 96 96;" xml:space="preserve">
<style type="text/css">
	.st0{fill:#FE6E53;}
	.st1{opacity:0.12;fill:#FFFFFF;enable-background:new    ;}
	.st2{fill:none;}
	.st3{fill:#FFFFFF;}
	.st4{fill-rule:evenodd;clip-rule:evenodd;fill:#FFFFFF;}
</style>
<circle class="st0" cx="48.8" cy="48" r="46.5"/>
<path class="st1" d="M27.6,41.1c-9.9,0-18.8,3.9-25.2,10.2c1.7,24.1,21.8,43.2,46.4,43.2c2.5,0,5-0.2,7.4-0.6
	c4-5.5,6.4-12.1,6.4-19.3C62.6,56.1,46.9,41.1,27.6,41.1z"/>
<rect id="_x3C_Slice_x3E_" x="16.6" y="11.1" class="st2" width="79.8" height="74.9"/>
<path class="st2" d="M35.1,53.2"/>
<path class="st3" d="M24,23.2c0,3.9,3.3,8.7,7.2,8.7c4,0,7.2-4.8,7.2-8.7s-3.3-7-7.2-7C27.3,16.2,24,19.3,24,23.2 M36.4,23.1
	c0,3-2.5,6.8-5.1,6.8c-2.6,0-5.1-3.8-5.1-6.8c0-2.7,2.3-4.9,5.1-4.9S36.4,20.4,36.4,23.1"/>
<path class="st3" d="M20.6,48.4H29c1,10.6,9.9,18.7,21,19l-2.8,2.7c-0.5,0.5-0.5,1.3,0,1.8c0.5,0.5,1.3,0.5,1.8,0l5-4.8
	c0.2-0.2,0.4-0.6,0.4-0.9c0-0.4-0.1-0.7-0.4-0.9l-5-4.8c-0.5-0.5-1.3-0.5-1.8,0c-0.5,0.5-0.5,1.3,0,1.8l2.7,2.7
	c-9.6-0.4-17.4-7.4-18.3-16.6h10.1c0.7,0,1.3-0.6,1.3-1.2V43l0,0c-0.1-5.3-4.6-9.6-10.1-9.6h-3.5c-5.5,0-9.9,4.1-10.1,9.5v4.3
	C19.3,47.8,19.8,48.4,20.6,48.4 M29.2,34.5h3.9c4.5,0,8.1,4,8.2,9v3.7H21v-3.9C21.1,38.4,24.7,34.5,29.2,34.5"/>
<path class="st3" d="M71.7,61.7h-3.5c-5.5,0-9.9,4.1-10.1,9.5v4.3c0,0.7,0.6,1.2,1.3,1.2h21.1c0.7,0,1.3-0.6,1.3-1.2v-4.2l0,0
	C81.7,66,77.1,61.7,71.7,61.7z M80.3,75.4H59.5v-3.8c0.1-4.8,3.8-8.7,8.4-8.7h4c4.6,0,8.3,4,8.4,8.8L80.3,75.4L80.3,75.4z"/>
<path class="st3" d="M69.6,44.6c-3.8,0.2-6.8,3.3-6.8,7c0,3.9,3.3,8.7,7.2,8.7c4,0,7.2-4.8,7.2-8.7c0-3.2-2.2-5.9-5.1-6.7
	c-0.9-10.7-9.8-19-21-19.3l2.8-2.7c0.5-0.5,0.5-1.3,0-1.8c-0.5-0.5-1.3-0.5-1.8,0l-5,4.8c-0.2,0.2-0.4,0.6-0.4,0.9s0.1,0.7,0.4,0.9
	l5,4.8c0.5,0.5,1.3,0.5,1.8,0c0.5-0.5,0.5-1.3,0-1.8l-2.7-2.7C60.8,28.4,68.6,35.4,69.6,44.6 M75.2,51.4c0,3.3-2.5,7.4-5.2,7.4
	s-5.1-4.2-5.1-7.4c0-3,2.3-5.4,5.1-5.4C72.9,45.9,75.2,48.4,75.2,51.4"/>
<path class="st4" d="M59.5,38.5c0-0.6-0.5-1.1-1.1-1.1H47.4c-0.6,0-1.1,0.5-1.1,1.1c0,0.6,0.5,1.1,1.1,1.1h4.4
	c1.4,0,2.7,0.9,3.1,2.2h-7.5c-0.6,0-1.1,0.5-1.1,1.1c0,0.6,0.5,1.1,1.1,1.1h7.5c-0.4,1.2-1.7,2.2-3.1,2.2h-4.4c-0.1,0-0.3,0-0.4,0.1
	c-0.3,0.1-0.5,0.3-0.6,0.6c-0.1,0.3-0.1,0.6,0,0.8c0.1,0.1,0.1,0.2,0.2,0.4l8.8,8.5c0.2,0.2,0.5,0.3,0.8,0.3c0.3,0,0.6-0.1,0.8-0.3
	c0.4-0.4,0.4-1.1,0-1.5l-6.9-6.7h1.7c2.7,0,4.9-1.8,5.4-4.3h1.2c0.6,0,1.1-0.5,1.1-1.1c0-0.6-0.5-1.1-1.1-1.1h-1.2
	c-0.1-0.8-0.5-1.5-1-2.2h2.2C59,39.6,59.5,39.1,59.5,38.5"/>
<rect x="19.2" y="16.2" class="st2" width="62.5" height="60.6"/>
</svg>
