<?xml version="1.0" encoding="utf-8"?>
<!-- Generator: Adobe Illustrator 23.1.0, SVG Export Plug-In . SVG Version: 6.00 Build 0)  -->
<svg version="1.1" id="Layer_1" xmlns="http://www.w3.org/2000/svg" xmlns:xlink="http://www.w3.org/1999/xlink" x="0px" y="0px"
	 viewBox="0 0 96 96" style="enable-background:new 0 0 96 96;" xml:space="preserve">
<style type="text/css">
	.st0{fill:#2ECFE7;}
	.st1{opacity:0.12;fill:#FFFFFF;enable-background:new    ;}
	.st2{fill:#FFFFFF;}
	.st3{fill:#FFFFFF;stroke:#FFFFFF;stroke-width:2;stroke-miterlimit:10;}
</style>
<circle class="st0" cx="48.2" cy="47.9" r="46.5"/>
<path class="st1" d="M31.1,4.7C13.9,11.5,1.7,28.3,1.7,47.9c0,18.5,10.7,34.4,26.3,41.9c19.1-2,34-20.4,34-42.8
	C62,25.8,48.6,8.2,31.1,4.7z"/>
<polygon class="st2" points="41.9,35.9 64,29.3 62.3,32.1 43.1,38.3 "/>
<polygon class="st2" points="49.5,42.8 63.1,30.9 64,32.7 50.3,45.9 "/>
<polygon class="st2" points="62.9,33 57.2,50.8 59.3,52.3 66.1,32.5 "/>
<ellipse class="st2" cx="66.3" cy="29.1" rx="4.9" ry="4.9"/>
<polygon class="st2" points="35.6,61.4 24.7,75.8 45.8,75.8 "/>
<path class="st2" d="M54.3,48.8L40.1,35.1l-3.6,8c0,0,12.6,5.2,13.2,5.7c0.7,0.5,3.8,3.3,3.8,3.3L54.3,48.8z"/>
<path class="st3" d="M28.4,22.3c-5.2,12.9-4.7,24.3,2.3,33.8c0.2-0.1,0.5-0.3,0.7-0.4c0.6-0.4,1.4-0.7,2.1-0.9
	c0.6-0.2,1.2-0.3,1.9-0.3c2.5,0,4.7,1.4,5.8,3.5c0.8,1.1,1.3,2.5,1.3,3.9c0,1.4-0.4,2.6-1.2,3.7c10.4,6.2,22,6.4,32.7,0.8L28.4,22.3
	z"/>
<circle class="st2" cx="34.8" cy="62.2" r="5.8"/>
</svg>
