<?xml version="1.0" encoding="utf-8"?>
<!-- Generator: Adobe Illustrator 23.1.0, SVG Export Plug-In . SVG Version: 6.00 Build 0)  -->
<svg version="1.1" id="Layer_1" xmlns="http://www.w3.org/2000/svg" xmlns:xlink="http://www.w3.org/1999/xlink" x="0px" y="0px"
	 viewBox="0 0 96 96" style="enable-background:new 0 0 96 96;" xml:space="preserve">
<style type="text/css">
	.st0{fill:#32D187;}
	.st1{opacity:0.12;fill:#FFFFFF;enable-background:new    ;}
	.st2{fill:#FFFFFF;stroke:#FFFFFF;stroke-miterlimit:10;}
	.st3{fill:#FFFFFF;}
	.st4{fill:none;stroke:#FFFFFF;stroke-width:2;stroke-miterlimit:10;}
	.st5{fill:none;}
	.st6{fill:#FFFFFF;stroke:#FFFFFF;stroke-width:0.5;stroke-miterlimit:10;}
</style>
<circle class="st0" cx="48.2" cy="47.9" r="46.5"/>
<path class="st1" d="M27,41c-9.9,0-18.8,3.9-25.2,10.2c1.7,24.1,21.8,43.2,46.4,43.2c2.5,0,5-0.2,7.4-0.6c4-5.5,6.4-12.1,6.4-19.3
	C62,56,46.3,41,27,41z"/>
<rect x="41.8" y="64.5" class="st2" width="15.4" height="8.9"/>
<rect x="43.6" y="73.9" class="st2" width="12.9" height="2.3"/>
<rect x="44.3" y="75.8" class="st2" width="9.5" height="1.7"/>
<rect x="24.1" y="43.1" class="st3" width="5.2" height="2.3"/>
<polygon class="st3" points="29.9,35.1 25.4,32.4 26.5,30.5 31,33.1 "/>
<polygon class="st3" points="36.3,26.4 33.1,22.3 34.8,20.8 38.1,25 "/>
<rect x="48.5" y="17.1" class="st3" width="2.2" height="5.4"/>
<polygon class="st3" points="61.2,24.3 64.3,20 66.1,21.4 63,25.7 "/>
<polygon class="st3" points="68.2,33.1 72.7,30.5 73.8,32.4 69.3,35.1 "/>
<polygon class="st3" points="71.1,41.7 76.3,41.8 76.3,44.1 71.2,44 "/>
<path class="st4" d="M47.8,65.3v-13v-3.8c0-0.2-0.2-1.6-1.5-2.3c-1.4-0.8-2.7-0.1-3,0c-0.9,0.5-1.3,1.2-1.5,1.5
	c-0.7,1.4-0.6,3.1,0.4,4.2c1,1.1,2.3,1.1,2.6,1.1c3,0,5.9,0,8.9,0c0.4,0,1.3-0.2,2.2-0.8c0.8-0.5,1.2-1.2,1.5-1.5
	c0.7-1.8,0-3.9-1.5-4.6c-1.2-0.6-2.8-0.3-3.7,0.8c-0.8,0.9-0.8,2-0.7,2.3c0,5.4,0,10.7,0,16.1H47.8z"/>
<rect id="_x3C_Slice_x3E_" x="16" y="11" class="st5" width="79.8" height="74.9"/>
<path class="st4" d="M42.2,75.6c1.7,2.1,4,3,6.6,3.1c1.1,0,2.7-0.1,4.4-0.8c1.2-0.4,2.2-1,3-1.5c0.5-3.8,1-7.6,1.5-11.5
	c0.2-0.6,1.8-3.1,3.5-5.7c2.9-4.3,3.1-4.4,3.9-5.8c3.7-6.8,0.9-14.9,0.7-15.3c-1.8-5.1-5.2-7.8-5.9-8.4c-1.2-1-5.3-4.1-11.1-3.8
	c-5.1,0.2-8.4,2.9-9.6,3.8c-5.2,4.2-6.4,10-6.6,11.5c-1.2,6.6,1.5,11.7,2.2,13c0.8,1.7,1.8,3.5,3,5.4c1.2,2,2.5,3.8,3.7,5.4
	C41.7,68.5,42,72,42.2,75.6z"/>
<path class="st5" d="M34.5,53.1"/>
<path class="st6" d="M47.6,42.3L47,41.9c0.1-0.1,1.2-1.1,3.1-1.1c1.7,0,2.7,0.9,2.8,1.1c-0.1,0.1-0.2,0.3-0.3,0.4
	c-0.1-0.1-1-0.9-2.5-0.9C49.9,41.5,48.6,41.5,47.6,42.3z"/>
<path class="st6" d="M45.5,34.4l-1.1-0.8c0.2-0.2,2.3-2.1,5.8-2c3.2,0.1,5,1.8,5.3,2c-0.2,0.3-0.4,0.5-0.5,0.8
	c-0.3-0.2-2-1.6-4.8-1.6C49.8,32.7,47.3,32.7,45.5,34.4z"/>
<path class="st6" d="M45.5,38.7l-1.1-0.8c0.2-0.2,2.3-2.1,5.8-2c3.2,0.1,5,1.8,5.3,2c-0.2,0.3-0.4,0.5-0.5,0.8
	c-0.3-0.2-2-1.6-4.8-1.6C49.8,37,47.3,37.1,45.5,38.7z"/>
</svg>
