<?xml version="1.0" encoding="utf-8"?>
<!-- Generator: Adobe Illustrator 23.1.0, SVG Export Plug-In . SVG Version: 6.00 Build 0)  -->
<svg version="1.1" id="Layer_1" xmlns="http://www.w3.org/2000/svg" xmlns:xlink="http://www.w3.org/1999/xlink" x="0px" y="0px"
	 viewBox="0 0 96 96" style="enable-background:new 0 0 96 96;" xml:space="preserve">
<style type="text/css">
	.st0{fill:#32CCE8;}
	.st1{opacity:0.13;fill:#FFFFFF;enable-background:new    ;}
	.st2{fill:#FFFFFF;}
</style>
<circle class="st0" cx="47.9" cy="48.5" r="46.5"/>
<path class="st1" d="M52.7,44.6c-8.2-4.9-31.4,1.8-50.8,10.8C5.2,77.8,24.5,95,47.9,95c22.8,0,41.7-16.4,45.7-38
	C79.3,57.9,61.2,49.7,52.7,44.6z"/>
<path class="st2" d="M29.3,47.9l36.8-17.5c5.5-3,10.3-4.1,14-2.6c1.5,0.9,2.9,1.7,4.4,2.6c0.9,1.9-0.3,3.6-2.6,5.3
	c-1.9,1.4-4,2.9-6.5,4.4c-4.3,2.5-8.4,4.2-11.9,5.3c-3.2,9.3-6.4,18.7-9.6,28c-0.9,3-2.5,5.2-4.4,7c-1.5,0.3-2.9,0.6-4.4,0.9
	c0.3-9.3,0.9-28,0.9-28s-10.8,5.2-18.4,7c-3.3,0.7-6.5,0.7-9.6,0L6.6,47C8.4,45.1,18.8,51.4,29.3,47.9z"/>
<path class="st2" d="M44.2,38.3l11.4-6.1l-12.3-4.4c-4.7-1.4-8.8-0.9-12.3,1.8L44.2,38.3z"/>
</svg>
