<?xml version="1.0" encoding="utf-8"?>
<!-- Generator: Adobe Illustrator 23.1.0, SVG Export Plug-In . SVG Version: 6.00 Build 0)  -->
<svg version="1.1" id="Layer_1" xmlns="http://www.w3.org/2000/svg" xmlns:xlink="http://www.w3.org/1999/xlink" x="0px" y="0px"
	 viewBox="0 0 96 96" style="enable-background:new 0 0 96 96;" xml:space="preserve">
<style type="text/css">
	.st0{fill:#35D08C;}
	.st1{opacity:0.12;fill:#FFFFFF;enable-background:new    ;}
	.st2{fill:#FFFFFF;}
	.st3{fill:none;}
</style>
<circle class="st0" cx="47" cy="48.4" r="46.5"/>
<path class="st1" d="M29.9,5.2C12.7,12,0.5,28.8,0.5,48.4c0,18.5,10.7,34.4,26.3,41.9c19.1-2,34-20.4,34-42.8
	C60.8,26.3,47.4,8.7,29.9,5.2z"/>
<path class="st2" d="M46.6,46.3l0,27.4c0,1.3-1,2.3-2.3,2.3c-1.3,0-2.3-1-2.3-2.3v-1c0-0.5-0.4-0.9-0.9-0.9c-0.5,0-0.9,0.4-0.9,0.9
	v1c0,2.3,1.8,4.1,4,4.1c2.2,0,4-1.8,4-4.1l0-27.4H46.6z"/>
<path class="st2" d="M69.1,29.7L69.1,29.7c-5.5-5.1-12.8-8-20.6-8.2v-3.8c0-0.5-0.4-0.9-0.9-0.9c-0.5,0-0.9,0.4-0.9,0.9v3.8
	c-7.8,0.2-15.1,3.1-20.6,8.2c-5.8,5.3-8.9,12.5-8.9,20v2.8c0,0.5,0.4,0.9,0.9,0.9c0.5,0,0.9-0.4,0.9-0.9v-2.3c1.9-1,4-1.7,6.2-2.1
	c3.4-0.5,7-0.2,10.2,1.1v2.2c0,0.5,0.4,0.9,0.9,0.9c0.5,0,0.9-0.4,0.9-0.9v-2.3c2.8-1.6,5.8-2.5,9-2.7c0,0,0.1-0.1,0.2-0.1h2.2
	c0.1,0,0.1,0,0.2,0c3.4,0.2,6.7,1.2,9.6,2.9v2.3c0,0.5,0.4,0.9,0.9,0.9c0.5,0,0.9-0.4,0.9-0.9v-2.2c3.2-1.3,6.6-1.7,10-1.2
	c2.2,0.3,4.2,1,6.2,2.1v2.3c0,0.5,0.4,0.9,0.9,0.9c0.5,0,0.9-0.4,0.9-0.9v-2.8C78,42.2,74.8,35.1,69.1,29.7 M35.4,47.4
	c-3.4-1.2-7-1.6-10.6-1c-2,0.3-4,0.9-5.8,1.8c0.8-12.7,11.2-23,24.6-24.7c-1.3,1.3-2.6,3.3-3.7,5.8C37.6,34.1,36,40.5,35.4,47.4
	 M47.6,44.6c-0.1,0-0.1,0-0.2,0c-3.5,0-7,0.9-10.2,2.5c1.4-14.8,6.8-23.8,10.3-23.8c0,0,0,0,0,0c3.5,0,9.1,9.1,10.5,23.9
	C54.9,45.5,51.3,44.6,47.6,44.6 M70.3,46.4c-3.5-0.5-7.1-0.1-10.4,1.1c-0.6-6.9-2.2-13.4-4.5-18.2c-1.2-2.5-2.4-4.4-3.8-5.7
	C65,25.3,75.4,35.6,76.2,48.2C74.3,47.3,72.3,46.7,70.3,46.4"/>
<rect x="11.4" y="12" class="st3" width="70.7" height="71.8"/>
</svg>
