<?xml version="1.0" encoding="utf-8"?>
<!-- Generator: Adobe Illustrator 23.1.0, SVG Export Plug-In . SVG Version: 6.00 Build 0)  -->
<svg version="1.1" id="Layer_1" xmlns="http://www.w3.org/2000/svg" xmlns:xlink="http://www.w3.org/1999/xlink" x="0px" y="0px"
	 viewBox="0 0 96 96" style="enable-background:new 0 0 96 96;" xml:space="preserve">
<style type="text/css">
	.st0{fill:#F5B153;}
	.st1{opacity:0.13;fill:#FFFFFF;enable-background:new    ;}
	.st2{fill:#FFFFFF;}
</style>
<circle class="st0" cx="48.2" cy="47.9" r="46.5"/>
<path class="st1" d="M53,44c-8.2-4.9-31.4,1.8-50.8,10.8c3.3,22.4,22.6,39.6,46,39.6c22.8,0,41.7-16.4,45.7-38
	C79.6,57.3,61.5,49.1,53,44z"/>
<path class="st2" d="M72.8,28.4H44.4v42.3h28.3c0.8-0.2,1.3-0.6,1.4-1.4V29.8C74.2,29.1,73.5,28.4,72.8,28.4z M55.4,65.3h-6v-2.5h6
	V65.3z M55.4,60.2h-6v-2.5h6V60.2z M55.4,55.1h-6v-2.5h6V55.1z M62.5,65.3h-6v-2.5h6V65.3z M62.5,55.1h-6v-2.5h6V55.1z M69.7,65.3
	h-6v-2.5h6V65.3z M69.7,60.2h-6v-2.5h6V60.2z M69.7,55.1h-6v-2.5h6V55.1z M70.1,46.9c0.1,0.6-0.3,1-0.8,1H50.1
	c-0.3,0-0.6-0.2-0.7-0.4h-0.2V47V32.2v-0.4c0-0.5,0.4-0.9,0.9-0.9h19.1c0.5,0,0.9,0.4,0.9,0.9V46.9z"/>
<path class="st2" d="M25.9,27.4v44.2c0,1.8,1.1,2.3,2.9,2.2h11.7c0.9-0.1,1.5-0.9,1.5-2.2V27.4c0-7.4,0-7.4,0-7.4
	c-0.6-1.3-2.4-1.4-2.9,0v5.2h-11C26.8,25.2,26.1,25.9,25.9,27.4z"/>
</svg>
