<?xml version="1.0" encoding="utf-8"?>
<!-- Generator: Adobe Illustrator 23.1.0, SVG Export Plug-In . SVG Version: 6.00 Build 0)  -->
<svg version="1.1" id="Layer_1" xmlns="http://www.w3.org/2000/svg" xmlns:xlink="http://www.w3.org/1999/xlink" x="0px" y="0px"
	 viewBox="0 0 96 96" style="enable-background:new 0 0 96 96;" xml:space="preserve">
<style type="text/css">
	.st0{fill:#FE6E53;}
	.st1{opacity:0.1;fill:#FFFFFF;enable-background:new    ;}
	.st2{fill:#FFFFFF;}
</style>
<circle class="st0" cx="48.2" cy="47.9" r="46.5"/>
<path class="st1" d="M48.2,1.4c-9.3,0-17.9,2.7-25.2,7.4c-0.7,2.8-1,5.7-1,8.7C22,41.5,44.6,61,72.5,61c7.6,0,14.8-1.5,21.3-4.1
	c0.6-2.9,0.9-5.9,0.9-9C94.7,22.2,73.9,1.4,48.2,1.4z"/>
<path class="st2" d="M29.9,45.5l-4.7-18c0,0-0.8-1.6,0-3.1s27.2-8.6,27.2-8.6s2.3-0.8,3.1,1.6s3.9,14.1,3.9,14.1l-1.6,0.8L54,18.1
	c-8.8,2.6-17.6,5.2-26.5,7.8c1.6,6.2,3.1,12.5,4.7,18.7C31.4,44.9,30.6,45.2,29.9,45.5z"/>
<path class="st2" d="M34.5,63.4l4.7,16.4c0,0,0,2.3,3.1,2.3s26.5-7.8,26.5-7.8s2.3-0.8,1.6-3.1c-0.8-2.3-6.2-21.9-6.2-21.9
	c-0.8,0.3-1.6,0.5-2.3,0.8c1.3,4.7,2.6,9.4,3.9,14.1c-8.6,2.3-17.1,4.7-25.7,7c-0.8-2.9-1.6-5.7-2.3-8.6
	C36.6,62.9,35.6,63.2,34.5,63.4z"/>
<path class="st2" d="M24.4,50.9L36.1,47l3.1,11.7l-2.7-2c-0.7,0.5-4.3,3.2-4.7,7.8c-0.4,5.4,4,9.4,4.7,9.4h0.1
	c0.5,0.3-0.1,2.3-0.1,2.3c-1.7-0.6-4.1-1.7-6.2-3.9c-1.6-1.6-2.4-3.2-2.9-4.1c-0.5-1-1.4-2.6-1.8-4.5c-0.5-2.6,0.7-5.7,3.1-11.7
	L24.4,50.9z"/>
<path class="st2" d="M67.7,46.5l-12.3,1.1l-0.3-12.1l2.2,2.5c0.7-0.3,4.9-2.1,6.3-6.5c1.7-5.2-1.8-10-2.4-10.2c0,0-0.1,0-0.1-0.1
	c-0.4-0.4,0.7-2.2,0.7-2.2c1.5,1,3.6,2.6,5.2,5.2c1.2,1.9,1.6,3.7,1.9,4.6c0.3,1.1,0.8,2.9,0.7,4.8c-0.1,2.7-2,5.4-5.7,10.7
	L67.7,46.5z"/>
<g>
	<rect x="37.8" y="35.4" transform="matrix(0.9673 -0.2538 0.2538 0.9673 -7.9414 12.2839)" class="st2" width="11.7" height="3"/>
	<rect x="39.1" y="40.3" transform="matrix(0.9673 -0.2538 0.2538 0.9673 -9.1413 12.7746)" class="st2" width="11.7" height="3"/>
	<path class="st2" d="M41.9,37.9c2.9,2.3,3.9,4.8,3.6,7.4c-0.7,1.8-2.1,2.8-4,3.1L52.4,56l2.3-0.6l-8.1-6.2c0.8-0.5,1.3-1.4,1.8-2.6
		c0.6-3.8-0.6-6.9-3.3-9.6L41.9,37.9z"/>
</g>
</svg>
